<?xml version="1.0" standalone="no"?>
<!DOCTYPE svg PUBLIC "-//W3C//DTD SVG 20010904//EN"
 "http://www.w3.org/TR/2001/REC-SVG-20010904/DTD/svg10.dtd">
<svg version="1.0" xmlns="http://www.w3.org/2000/svg"
 width="512.000000pt" height="512.000000pt" viewBox="0 0 512.000000 512.000000"
 preserveAspectRatio="xMidYMid meet">
<metadata>
Created by potrace 1.11, written by Peter Selinger 2001-2013
</metadata>
<g transform="translate(0.000000,512.000000) scale(0.100000,-0.100000)"
fill="#000000" stroke="none">
<path d="M2646 5105 c-9 -26 -7 -32 5 -12 6 10 9 21 6 23 -2 3 -7 -2 -11 -11z"/>
<path d="M3821 5089 c-6 -18 -9 -34 -7 -36 2 -2 9 10 15 28 6 18 9 34 7 36 -2
2 -9 -10 -15 -28z"/>
<path d="M1856 5095 c-9 -26 -7 -32 5 -12 6 10 9 21 6 23 -2 3 -7 -2 -11 -11z"/>
<path d="M3026 5065 c-9 -26 -7 -32 5 -12 6 10 9 21 6 23 -2 3 -7 -2 -11 -11z"/>
<path d="M2231 5039 c-6 -18 -9 -34 -7 -36 2 -2 9 10 15 28 6 18 9 34 7 36 -2
2 -9 -10 -15 -28z"/>
<path d="M4186 5015 c-9 -26 -7 -32 5 -12 6 10 9 21 6 23 -2 3 -7 -2 -11 -11z"/>
<path d="M3386 4975 c-9 -26 -7 -32 5 -12 6 10 9 21 6 23 -2 3 -7 -2 -11 -11z"/>
<path d="M4556 4945 c-9 -26 -7 -32 5 -12 6 10 9 21 6 23 -2 3 -7 -2 -11 -11z"/>
<path d="M3766 4935 c-9 -26 -7 -32 5 -12 6 10 9 21 6 23 -2 3 -7 -2 -11 -11z"/>
<path d="M4931 4889 c-6 -18 -9 -34 -7 -36 2 -2 9 10 15 28 6 18 9 34 7 36 -2
2 -9 -10 -15 -28z"/>
<path d="M2966 4895 c-9 -26 -7 -32 5 -12 6 10 9 21 6 23 -2 3 -7 -2 -11 -11z"/>
<path d="M2557 4850 l-15 -40 -191 0 c-177 0 -190 1 -185 18 5 16 5 16 -6 0
-10 -16 -31 -18 -201 -18 l-190 0 5 23 6 22 -11 -22 c-11 -21 -19 -23 -113
-25 l-101 -2 95 -3 c59 -3 97 -8 102 -16 6 -9 8 -9 8 1 0 9 46 12 195 12 l195
0 -11 -26 c-5 -15 -8 -29 -5 -31 2 -2 8 10 14 26 l11 31 385 0 c296 0 386 -3
389 -13 4 -9 6 -9 6 1 1 18 1167 17 1174 -1 4 -9 6 -9 6 1 1 9 106 12 497 12
273 0 499 2 502 5 3 3 -40 5 -96 5 -90 0 -102 2 -102 18 -1 16 -1 16 -11 0 -9
-16 -40 -18 -394 -18 -295 0 -385 3 -388 13 -4 9 -6 9 -6 0 -1 -10 -46 -13
-191 -13 -174 0 -190 1 -190 18 -1 16 -1 16 -11 0 -9 -16 -51 -18 -589 -18
-346 0 -580 4 -580 10 0 5 5 21 10 36 6 15 9 28 7 30 -2 3 -11 -14 -20 -36z"/>
<path d="M4096 4755 c-9 -26 -7 -32 5 -12 6 10 9 21 6 23 -2 3 -7 -2 -11 -11z"/>
<path d="M3301 4729 c-6 -18 -9 -34 -7 -36 2 -2 9 10 15 28 6 18 9 34 7 36 -2
2 -9 -10 -15 -28z"/>
<path d="M4876 4735 c-9 -26 -7 -32 5 -12 6 10 9 21 6 23 -2 3 -7 -2 -11 -11z"/>
<path d="M4471 4699 c-6 -18 -9 -34 -7 -36 2 -2 9 10 15 28 6 18 9 34 7 36 -2
2 -9 -10 -15 -28z"/>
<path d="M2506 4705 c-9 -26 -7 -32 5 -12 6 10 9 21 6 23 -2 3 -7 -2 -11 -11z"/>
<path d="M3676 4675 c-9 -26 -7 -32 5 -12 6 10 9 21 6 23 -2 3 -7 -2 -11 -11z"/>
<path d="M2881 4649 c-6 -18 -9 -34 -7 -36 2 -2 9 10 15 28 6 18 9 34 7 36 -2
2 -9 -10 -15 -28z"/>
<path d="M2086 4625 c-9 -26 -7 -32 5 -12 6 10 9 21 6 23 -2 3 -7 -2 -11 -11z"/>
<path d="M4036 4585 c-9 -26 -7 -32 5 -12 6 10 9 21 6 23 -2 3 -7 -2 -11 -11z"/>
<path d="M1676 4575 c-9 -26 -7 -32 5 -12 6 10 9 21 6 23 -2 3 -7 -2 -11 -11z"/>
<path d="M4416 4545 c-9 -26 -7 -32 5 -12 6 10 9 21 6 23 -2 3 -7 -2 -11 -11z"/>
<path d="M4006 4495 c-9 -26 -7 -32 5 -12 6 10 9 21 6 23 -2 3 -7 -2 -11 -11z"/>
<path d="M3211 4469 c-6 -18 -9 -34 -7 -36 2 -2 9 10 15 28 6 18 9 34 7 36 -2
2 -9 -10 -15 -28z"/>
<path d="M4786 4475 c-9 -26 -7 -32 5 -12 6 10 9 21 6 23 -2 3 -7 -2 -11 -11z"/>
<path d="M2416 4445 c-9 -26 -7 -32 5 -12 6 10 9 21 6 23 -2 3 -7 -2 -11 -11z"/>
<path d="M1626 4435 c-9 -26 -7 -32 5 -12 6 10 9 21 6 23 -2 3 -7 -2 -11 -11z"/>
<path d="M3586 4415 c-9 -26 -7 -32 5 -12 6 10 9 21 6 23 -2 3 -7 -2 -11 -11z"/>
<path d="M2791 4389 c-6 -18 -9 -34 -7 -36 2 -2 9 10 15 28 6 18 9 34 7 36 -2
2 -9 -10 -15 -28z"/>
<path d="M1996 4365 c-9 -26 -7 -32 5 -12 6 10 9 21 6 23 -2 3 -7 -2 -11 -11z"/>
<path d="M3951 4339 c-6 -18 -9 -34 -7 -36 2 -2 9 10 15 28 6 18 9 34 7 36 -2
2 -9 -10 -15 -28z"/>
<path d="M3156 4315 c-9 -26 -7 -32 5 -12 6 10 9 21 6 23 -2 3 -7 -2 -11 -11z"/>
<path d="M4326 4285 c-9 -26 -7 -32 5 -12 6 10 9 21 6 23 -2 3 -7 -2 -11 -11z"/>
<path d="M3531 4259 c-6 -18 -9 -34 -7 -36 2 -2 9 10 15 28 6 18 9 34 7 36 -2
2 -9 -10 -15 -28z"/>
<path d="M4701 4229 c-6 -18 -9 -34 -7 -36 2 -2 9 10 15 28 6 18 9 34 7 36 -2
2 -9 -10 -15 -28z"/>
<path d="M2736 4235 c-9 -26 -7 -32 5 -12 6 10 9 21 6 23 -2 3 -7 -2 -11 -11z"/>
<path d="M2331 4192 c-1 -9 -105 -12 -492 -12 -271 0 -494 -2 -497 -5 -3 -3
-3 -7 0 -10 3 -3 135 -6 294 -5 l289 0 0 -24 c0 -13 -3 -22 -7 -20 -10 6 -50
-124 -42 -137 4 -7 3 -9 -4 -5 -13 8 -97 -238 -86 -255 4 -7 3 -9 -4 -5 -13 8
-57 -119 -46 -135 4 -8 3 -9 -4 -5 -7 4 -12 1 -12 -8 0 -13 27 -16 193 -18
105 -2 18 -4 -195 -6 -299 -1 -388 1 -391 11 -4 9 -6 9 -6 0 -1 -10 -31 -14
-108 -15 l-108 -2 100 -3 c63 -3 102 -8 107 -16 6 -9 8 -9 8 1 0 9 46 12 195
12 l194 0 -35 -97 c-19 -53 -32 -103 -30 -110 4 -9 1 -11 -6 -7 -7 5 -9 0 -6
-14 4 -12 2 -20 -2 -17 -12 7 -83 -212 -74 -226 4 -7 3 -9 -4 -5 -13 8 -57
-119 -46 -135 4 -8 3 -9 -4 -5 -7 4 -12 2 -12 -3 0 -8 -96 -11 -302 -11 -166
0 -299 -2 -296 -5 3 -3 136 -5 297 -5 161 0 291 -4 291 -9 0 -5 -16 -53 -35
-106 -20 -54 -33 -105 -31 -112 4 -9 1 -11 -6 -7 -7 5 -9 0 -6 -14 4 -12 2
-20 -2 -17 -12 7 -93 -242 -84 -256 4 -7 3 -9 -4 -5 -6 4 -17 -14 -27 -44
l-17 -50 -299 0 c-193 0 -299 -4 -299 -10 0 -6 105 -10 295 -10 162 0 295 -2
295 -3 0 -2 -9 -30 -20 -63 -11 -32 -18 -64 -15 -72 2 -7 1 -11 -4 -7 -12 7
-45 -91 -35 -106 5 -8 3 -9 -6 -4 -10 6 -12 3 -8 -13 4 -14 2 -20 -4 -16 -7 5
-9 -3 -4 -22 4 -18 3 -24 -2 -16 -11 17 -87 -202 -76 -219 4 -8 3 -9 -4 -5 -7
4 -16 -9 -23 -34 l-12 -40 -295 0 c-162 0 -297 -2 -300 -5 -3 -3 38 -5 91 -5
86 0 97 -2 97 -17 1 -17 1 -17 11 -1 9 16 29 18 197 18 l188 0 0 -35 c0 -19
-3 -30 -6 -25 -4 6 -14 -15 -24 -45 -9 -30 -14 -60 -10 -67 4 -6 3 -8 -4 -4
-13 8 -57 -119 -46 -135 5 -8 3 -9 -6 -4 -10 6 -12 1 -7 -21 3 -16 3 -23 0
-15 -7 18 -86 -197 -78 -216 2 -8 1 -12 -4 -9 -5 3 -14 -8 -19 -24 l-11 -30
-297 0 c-163 0 -299 -2 -302 -5 -3 -3 40 -5 96 -5 71 0 102 -4 105 -12 4 -10
6 -10 6 0 1 18 1167 17 1174 -1 4 -9 6 -9 6 1 1 9 125 12 587 12 l585 0 -5
-23 -6 -22 12 23 11 22 495 0 c272 0 497 2 500 5 5 5 -334 7 -795 5 -110 0
-193 3 -193 8 0 5 7 29 15 53 9 24 13 49 10 57 -2 7 -1 11 4 7 12 -7 45 91 35
106 -5 8 -3 9 6 4 10 -6 11 -1 6 21 -4 17 -3 24 2 16 10 -15 46 93 36 110 -4
6 -3 8 4 4 13 -8 57 119 46 135 -5 8 -3 9 6 4 10 -6 11 -1 6 21 -4 17 -3 24 2
16 6 -9 12 0 21 28 l12 40 194 0 195 0 -11 -26 c-5 -15 -8 -29 -5 -31 2 -2 8
10 14 26 l11 31 190 0 c142 0 191 -3 194 -12 4 -10 6 -10 6 0 1 9 31 13 109
14 l107 2 -100 3 c-63 3 -102 8 -107 16 -6 9 -8 9 -8 0 0 -10 -85 -13 -390
-13 -214 0 -390 2 -390 3 0 2 9 30 20 63 11 32 18 64 15 72 -2 7 -1 11 4 7 11
-6 53 115 48 136 -2 8 -2 10 1 5 7 -14 94 236 87 252 -3 8 0 10 7 6 8 -5 9 2
4 22 -4 18 -3 24 2 16 7 -11 11 -7 16 12 l6 26 391 0 390 0 -7 -22 c-12 -40
-11 -44 4 -10 l15 32 103 0 c63 0 104 4 104 10 0 10 -45 11 -397 10 -110 0
-193 3 -193 8 0 5 7 29 15 53 9 24 13 49 10 57 -3 8 0 10 7 6 7 -5 9 2 5 22
-3 16 -3 23 0 15 7 -18 86 197 78 216 -2 8 -1 12 4 8 11 -6 53 115 48 136 -2
8 -1 10 1 4 3 -5 13 13 22 40 l17 50 188 3 c144 2 190 -1 197 -10 6 -10 8 -10
8 0 0 9 29 12 112 12 61 0 109 2 106 5 -3 3 -229 5 -502 5 l-497 0 7 22 c5 13
8 33 9 45 0 11 3 19 7 17 10 -6 50 124 42 137 -4 7 -3 9 4 5 13 -8 97 238 86
255 -4 7 -3 9 4 5 12 -7 57 118 48 133 -4 6 70 10 193 11 154 0 200 -2 204
-12 4 -10 6 -10 6 0 1 9 71 12 309 14 169 1 259 4 200 5 -96 3 -107 5 -102 21
5 16 5 16 -6 0 -10 -16 -31 -18 -200 -18 -141 0 -190 3 -193 13 -4 9 -6 9 -6
0 -1 -10 -86 -12 -388 -11 -214 2 -305 4 -203 6 132 2 186 6 192 15 6 9 8 8 8
-3 1 -8 19 34 41 94 22 61 37 116 34 123 -3 9 0 11 7 7 7 -5 9 0 6 14 -4 12
-2 20 2 17 12 -7 83 212 74 226 -4 7 -3 9 4 5 6 -4 18 16 29 51 l20 58 191 3
c150 2 192 0 192 -10 0 -10 2 -10 8 0 6 9 79 12 305 12 180 1 299 4 302 10 6
9 -229 12 -792 10 -147 -1 -192 2 -196 12 -4 10 -6 10 -6 0 -1 -18 -1167 -17
-1174 1 -4 9 -6 9 -6 0 -1 -10 -46 -13 -190 -13 -142 0 -191 3 -194 13 -4 9
-6 9 -6 -1z m763 -59 c-4 -16 -8 -38 -8 -50 -1 -11 -4 -19 -8 -17 -10 6 -40
-94 -32 -107 5 -8 3 -9 -6 -4 -10 6 -11 1 -6 -21 4 -17 3 -24 -2 -16 -10 15
-46 -93 -36 -110 4 -6 3 -8 -4 -4 -13 8 -57 -119 -46 -135 5 -8 3 -9 -6 -4
-10 6 -12 3 -8 -13 4 -12 2 -20 -2 -17 -5 3 -11 -5 -15 -17 -3 -13 -11 -35
-17 -50 l-10 -28 -193 0 -193 0 25 67 c13 36 21 73 19 80 -3 8 -2 12 3 8 13
-7 53 118 45 141 -4 13 -3 15 3 6 11 -15 48 92 37 110 -4 6 -3 8 4 4 13 -8 57
119 46 135 -5 8 -3 9 6 4 10 -6 12 -3 8 13 -4 12 -2 20 2 17 5 -3 11 4 15 15
6 19 15 20 197 20 l190 0 -8 -27z m-691 -590 c-51 -2 -136 -2 -190 0 -54 1
-12 3 92 3 105 0 149 -2 98 -3z m785 0 c-54 -2 -142 -2 -195 0 -54 1 -10 3 97
3 107 0 151 -2 98 -3z m-307 -26 c0 -9 2 -9 6 1 3 9 52 12 196 12 l192 0 0
-24 c0 -13 -4 -22 -9 -19 -5 4 -6 -7 -2 -23 4 -17 3 -24 -2 -16 -10 15 -46
-93 -36 -110 4 -6 3 -8 -4 -4 -13 8 -47 -89 -36 -105 5 -8 3 -9 -6 -4 -10 6
-12 3 -8 -13 4 -14 2 -20 -4 -16 -7 5 -9 -3 -4 -22 4 -17 3 -24 -2 -16 -11 16
-36 -63 -26 -80 4 -6 3 -8 -4 -4 -13 8 -57 -119 -46 -135 4 -7 3 -9 -4 -5 -6
3 -13 -3 -17 -14 -6 -19 -15 -20 -196 -20 -144 0 -189 3 -190 13 0 10 -2 10
-6 0 -4 -10 -92 -13 -392 -13 l-388 0 1 29 c1 16 3 27 5 25 8 -8 92 239 86
254 -3 8 0 10 7 6 7 -5 9 0 6 14 -4 14 -2 20 4 16 7 -5 9 3 4 22 -4 16 -3 24
2 17 10 -16 77 171 66 188 -5 8 -3 9 6 4 10 -6 12 -3 8 13 -4 12 -3 20 2 17 4
-3 10 2 14 10 4 13 59 15 391 15 299 0 385 -3 386 -13z m-1011 -634 c0 -5 -85
-8 -190 -8 -104 0 -190 3 -190 8 0 4 86 7 190 7 105 0 190 -3 190 -7z m790 3
c0 -1 -9 -29 -20 -62 -11 -32 -18 -64 -15 -72 2 -7 1 -11 -4 -7 -12 7 -55
-121 -45 -136 5 -8 3 -9 -6 -4 -10 6 -12 1 -7 -21 3 -16 3 -23 0 -15 -7 18
-86 -197 -78 -216 3 -9 0 -11 -7 -7 -7 5 -9 0 -6 -14 4 -12 2 -20 -3 -17 -4 3
-11 -6 -15 -20 l-6 -25 -194 0 -193 0 35 97 c19 53 32 103 30 110 -4 9 -1 11
6 7 7 -5 9 2 5 22 -3 16 -3 23 0 15 7 -18 86 197 78 216 -3 9 0 11 7 7 7 -5 9
0 6 14 -4 12 -2 20 2 17 7 -4 40 81 40 102 0 1 -87 4 -192 5 -106 2 -19 4 195
6 213 1 387 0 387 -2z m298 -3 c-54 -2 -142 -2 -195 0 -54 1 -10 3 97 3 107 0
151 -2 98 -3z m422 0 c-159 -7 -318 -7 -313 0 2 4 88 6 191 5 103 -1 158 -3
122 -5z m270 0 c-132 -3 -186 -7 -192 -16 -5 -7 -8 -8 -8 -1 0 6 3 14 7 17 3
4 90 6 192 5 l186 -3 -185 -2z m-870 -606 c36 -2 -22 -4 -127 -5 -106 -1 -193
1 -193 6 0 6 161 6 320 -1z m845 3 c-4 -6 -77 -9 -193 -8 l-187 2 190 6 c105
3 191 7 193 8 2 1 0 -2 -3 -8z m-2057 -7 c-54 -2 -142 -2 -195 0 -54 1 -10 3
97 3 107 0 151 -2 98 -3z m390 0 c-54 -2 -142 -2 -195 0 -54 1 -10 3 97 3 107
0 151 -2 98 -3z m1180 0 c-54 -2 -142 -2 -195 0 -54 1 -10 3 97 3 107 0 151
-2 98 -3z m-308 -27 c0 -2 -7 -23 -15 -46 -8 -24 -13 -53 -9 -64 3 -14 2 -17
-3 -8 -11 15 -48 -93 -37 -110 4 -6 3 -8 -4 -4 -13 8 -57 -119 -46 -135 5 -8
3 -9 -6 -4 -10 6 -11 1 -6 -21 4 -16 3 -24 -1 -17 -5 7 -23 -30 -47 -98 l-38
-109 -584 0 c-321 0 -584 4 -584 9 0 5 7 28 15 52 9 24 13 49 10 57 -2 7 -1
11 4 7 12 -7 45 91 35 106 -5 8 -3 9 6 4 10 -6 12 -3 8 13 -4 14 -2 20 4 16 7
-5 9 3 4 22 -4 18 -3 24 2 16 11 -17 87 202 76 219 -4 7 -3 9 4 5 6 -4 17 14
27 44 l17 50 584 0 c321 0 584 -2 584 -4z m-1390 -608 c0 -5 -85 -8 -190 -8
-104 0 -190 3 -190 8 0 4 86 7 190 7 105 0 190 -3 190 -7z m1478 -5 c-54 -2
-142 -2 -195 0 -54 1 -10 3 97 3 107 0 151 -2 98 -3z m-1098 -30 c1 -17 1 -17
11 -1 9 16 40 18 393 18 375 0 384 -1 389 -20 3 -11 1 -18 -3 -15 -11 7 -43
-92 -34 -106 4 -7 3 -9 -3 -6 -12 8 -57 -129 -47 -145 4 -6 3 -8 -4 -4 -13 8
-47 -89 -36 -105 5 -8 3 -9 -6 -4 -10 6 -11 1 -6 -21 4 -16 3 -24 -1 -17 -6 8
-22 -25 -43 -87 l-35 -100 -387 0 c-301 0 -388 3 -389 13 0 9 -2 9 -6 0 -3
-10 -53 -13 -198 -13 l-194 0 35 97 c19 53 32 103 30 110 -4 9 -1 11 6 7 7 -5
9 0 6 14 -4 12 -3 20 2 17 11 -7 93 242 84 256 -4 7 -3 9 4 5 13 -8 47 89 36
105 -4 8 -3 9 4 5 7 -4 12 -2 12 3 0 7 63 11 190 11 174 0 190 -1 190 -17z"/>
<path d="M2471 3469 c-6 -18 -9 -34 -7 -36 2 -2 9 10 15 28 6 18 9 34 7 36 -2
2 -9 -10 -15 -28z"/>
<path d="M2836 3395 c-9 -26 -7 -32 5 -12 6 10 9 21 6 23 -2 3 -7 -2 -11 -11z"/>
<path d="M2416 3315 c-9 -26 -7 -32 5 -12 6 10 9 21 6 23 -2 3 -7 -2 -11 -11z"/>
<path d="M2746 3135 c-9 -26 -7 -32 5 -12 6 10 9 21 6 23 -2 3 -7 -2 -11 -11z"/>
<path d="M2326 3055 c-9 -26 -7 -32 5 -12 6 10 9 21 6 23 -2 3 -7 -2 -11 -11z"/>
<path d="M2686 2965 c-9 -26 -7 -32 5 -12 6 10 9 21 6 23 -2 3 -7 -2 -11 -11z"/>
<path d="M2036 2225 c-3 -9 -6 -22 -5 -28 0 -7 5 -1 10 12 5 13 8 26 5 28 -2
2 -6 -3 -10 -12z"/>
<path d="M2421 2199 c-6 -18 -9 -34 -7 -36 2 -2 9 10 15 28 6 18 9 34 7 36 -2
2 -9 -10 -15 -28z"/>
<path d="M2006 2135 c-9 -26 -7 -32 5 -12 6 10 9 21 6 23 -2 3 -7 -2 -11 -11z"/>
<path d="M2366 2045 c-9 -26 -7 -32 5 -12 6 10 9 21 6 23 -2 3 -7 -2 -11 -11z"/>
<path d="M1946 1965 c-9 -26 -7 -32 5 -12 6 10 9 21 6 23 -2 3 -7 -2 -11 -11z"/>
<path d="M2276 1785 c-9 -26 -7 -32 5 -12 6 10 9 21 6 23 -2 3 -7 -2 -11 -11z"/>
<path d="M1861 1719 c-6 -18 -9 -34 -7 -36 2 -2 9 10 15 28 6 18 9 34 7 36 -2
2 -9 -10 -15 -28z"/>
<path d="M2191 1539 c-6 -18 -9 -34 -7 -36 2 -2 9 10 15 28 6 18 9 34 7 36 -2
2 -9 -10 -15 -28z"/>
<path d="M1771 1459 c-6 -18 -9 -34 -7 -36 2 -2 9 10 15 28 6 18 9 34 7 36 -2
2 -9 -10 -15 -28z"/>
<path d="M2136 1385 c-9 -26 -7 -32 5 -12 6 10 9 21 6 23 -2 3 -7 -2 -11 -11z"/>
<path d="M1716 1305 c-9 -26 -7 -32 5 -12 6 10 9 21 6 23 -2 3 -7 -2 -11 -11z"/>
<path d="M2046 1125 c-9 -26 -7 -32 5 -12 6 10 9 21 6 23 -2 3 -7 -2 -11 -11z"/>
<path d="M1626 1045 c-9 -26 -7 -32 5 -12 6 10 9 21 6 23 -2 3 -7 -2 -11 -11z"/>
<path d="M4646 4075 c-9 -26 -7 -32 5 -12 6 10 9 21 6 23 -2 3 -7 -2 -11 -11z"/>
<path d="M4236 4025 c-9 -26 -7 -32 5 -12 6 10 9 21 6 23 -2 3 -7 -2 -11 -11z"/>
<path d="M4616 3985 c-9 -26 -7 -32 5 -12 6 10 9 21 6 23 -2 3 -7 -2 -11 -11z"/>
<path d="M1446 3915 c-9 -26 -7 -32 5 -12 6 10 9 21 6 23 -2 3 -7 -2 -11 -11z"/>
<path d="M4181 3869 c-6 -18 -9 -34 -7 -36 2 -2 9 10 15 28 6 18 9 34 7 36 -2
2 -9 -10 -15 -28z"/>
<path d="M4556 3815 c-9 -26 -7 -32 5 -12 6 10 9 21 6 23 -2 3 -7 -2 -11 -11z"/>
<path d="M1386 3745 c-9 -26 -7 -32 5 -12 6 10 9 21 6 23 -2 3 -7 -2 -11 -11z"/>
<path d="M4091 3609 c-6 -18 -9 -34 -7 -36 2 -2 9 10 15 28 6 18 9 34 7 36 -2
2 -9 -10 -15 -28z"/>
<path d="M1296 3485 c-9 -26 -7 -32 5 -12 6 10 9 21 6 23 -2 3 -7 -2 -11 -11z"/>
<path d="M4406 3385 c-9 -26 -7 -32 5 -12 6 10 9 21 6 23 -2 3 -7 -2 -11 -11z"/>
<path d="M4001 3349 c-6 -18 -9 -34 -7 -36 2 -2 9 10 15 28 6 18 9 34 7 36 -2
2 -9 -10 -15 -28z"/>
<path d="M4386 3325 c-9 -26 -7 -32 5 -12 6 10 9 21 6 23 -2 3 -7 -2 -11 -11z"/>
<path d="M1206 3225 c-9 -26 -7 -32 5 -12 6 10 9 21 6 23 -2 3 -7 -2 -11 -11z"/>
<path d="M3946 3195 c-9 -26 -7 -32 5 -12 6 10 9 21 6 23 -2 3 -7 -2 -11 -11z"/>
<path d="M4326 3155 c-9 -26 -7 -32 5 -12 6 10 9 21 6 23 -2 3 -7 -2 -11 -11z"/>
<path d="M1156 3085 c-9 -26 -7 -32 5 -12 6 10 9 21 6 23 -2 3 -7 -2 -11 -11z"/>
<path d="M3861 2949 c-6 -18 -9 -34 -7 -36 2 -2 9 10 15 28 6 18 9 34 7 36 -2
2 -9 -10 -15 -28z"/>
<path d="M1066 2825 c-9 -26 -7 -32 5 -12 6 10 9 21 6 23 -2 3 -7 -2 -11 -11z"/>
<path d="M4146 2635 c-9 -26 -7 -32 5 -12 6 10 9 21 6 23 -2 3 -7 -2 -11 -11z"/>
<path d="M976 2565 c-9 -26 -7 -32 5 -12 6 10 9 21 6 23 -2 3 -7 -2 -11 -11z"/>
<path d="M4086 2465 c-9 -26 -7 -32 5 -12 6 10 9 21 6 23 -2 3 -7 -2 -11 -11z"/>
<path d="M916 2395 c-9 -26 -7 -32 5 -12 6 10 9 21 6 23 -2 3 -7 -2 -11 -11z"/>
<path d="M836 2165 c-9 -26 -7 -32 5 -12 6 10 9 21 6 23 -2 3 -7 -2 -11 -11z"/>
<path d="M3536 2015 c-9 -26 -7 -32 5 -12 6 10 9 21 6 23 -2 3 -7 -2 -11 -11z"/>
<path d="M3916 1975 c-9 -26 -7 -32 5 -12 6 10 9 21 6 23 -2 3 -7 -2 -11 -11z"/>
<path d="M746 1905 c-9 -26 -7 -32 5 -12 6 10 9 21 6 23 -2 3 -7 -2 -11 -11z"/>
<path d="M3481 1859 c-6 -18 -9 -34 -7 -36 2 -2 9 10 15 28 6 18 9 34 7 36 -2
2 -9 -10 -15 -28z"/>
<path d="M3856 1805 c-9 -26 -7 -32 5 -12 6 10 9 21 6 23 -2 3 -7 -2 -11 -11z"/>
<path d="M3446 1755 c-9 -26 -7 -32 5 -12 6 10 9 21 6 23 -2 3 -7 -2 -11 -11z"/>
<path d="M686 1735 c-9 -26 -7 -32 5 -12 6 10 9 21 6 23 -2 3 -7 -2 -11 -11z"/>
<path d="M3766 1545 c-9 -26 -7 -32 5 -12 6 10 9 21 6 23 -2 3 -7 -2 -11 -11z"/>
<path d="M596 1475 c-9 -26 -7 -32 5 -12 6 10 9 21 6 23 -2 3 -7 -2 -11 -11z"/>
<path d="M3301 1339 c-6 -18 -9 -34 -7 -36 2 -2 9 10 15 28 6 18 9 34 7 36 -2
2 -9 -10 -15 -28z"/>
<path d="M3676 1285 c-9 -26 -7 -32 5 -12 6 10 9 21 6 23 -2 3 -7 -2 -11 -11z"/>
<path d="M506 1215 c-9 -26 -7 -32 5 -12 6 10 9 21 6 23 -2 3 -7 -2 -11 -11z"/>
<path d="M3246 1185 c-9 -26 -7 -32 5 -12 6 10 9 21 6 23 -2 3 -7 -2 -11 -11z"/>
<path d="M3626 1145 c-9 -26 -7 -32 5 -12 6 10 9 21 6 23 -2 3 -7 -2 -11 -11z"/>
<path d="M3216 1095 c-9 -26 -7 -32 5 -12 6 10 9 21 6 23 -2 3 -7 -2 -11 -11z"/>
<path d="M456 1075 c-9 -26 -7 -32 5 -12 6 10 9 21 6 23 -2 3 -7 -2 -11 -11z"/>
<path d="M3156 925 c-9 -26 -7 -32 5 -12 6 10 9 21 6 23 -2 3 -7 -2 -11 -11z"/>
<path d="M2366 915 c-9 -26 -7 -32 5 -12 6 10 9 21 6 23 -2 3 -7 -2 -11 -11z"/>
<path d="M3536 885 c-9 -26 -7 -32 5 -12 6 10 9 21 6 23 -2 3 -7 -2 -11 -11z"/>
<path d="M1956 865 c-9 -26 -7 -32 5 -12 6 10 9 21 6 23 -2 3 -7 -2 -11 -11z"/>
<path d="M1161 839 c-6 -18 -9 -34 -7 -36 2 -2 9 10 15 28 6 18 9 34 7 36 -2
2 -9 -10 -15 -28z"/>
<path d="M2336 825 c-9 -26 -7 -32 5 -12 6 10 9 21 6 23 -2 3 -7 -2 -11 -11z"/>
<path d="M366 815 c-9 -26 -7 -32 5 -12 6 10 9 21 6 23 -2 3 -7 -2 -11 -11z"/>
<path d="M1536 785 c-9 -26 -7 -32 5 -12 6 10 9 21 6 23 -2 3 -7 -2 -11 -11z"/>
<path d="M741 759 c-6 -18 -9 -34 -7 -36 2 -2 9 10 15 28 6 18 9 34 7 36 -2 2
-9 -10 -15 -28z"/>
<path d="M2696 735 c-9 -26 -7 -32 5 -12 6 10 9 21 6 23 -2 3 -7 -2 -11 -11z"/>
<path d="M1901 709 c-6 -18 -9 -34 -7 -36 2 -2 9 10 15 28 6 18 9 34 7 36 -2
2 -9 -10 -15 -28z"/>
<path d="M3071 679 c-6 -18 -9 -34 -7 -36 2 -2 9 10 15 28 6 18 9 34 7 36 -2
2 -9 -10 -15 -28z"/>
<path d="M2276 655 c-9 -26 -7 -32 5 -12 6 10 9 21 6 23 -2 3 -7 -2 -11 -11z"/>
<path d="M1481 629 c-6 -18 -9 -34 -7 -36 2 -2 9 10 15 28 6 18 9 34 7 36 -2
2 -9 -10 -15 -28z"/>
<path d="M3446 625 c-9 -26 -7 -32 5 -12 6 10 9 21 6 23 -2 3 -7 -2 -11 -11z"/>
<path d="M1071 579 c-6 -18 -9 -34 -7 -36 2 -2 9 10 15 28 6 18 9 34 7 36 -2
2 -9 -10 -15 -28z"/>
<path d="M276 555 c-9 -26 -7 -32 5 -12 6 10 9 21 6 23 -2 3 -7 -2 -11 -11z"/>
<path d="M3011 509 c-6 -18 -9 -34 -7 -36 2 -2 9 10 15 28 6 18 9 34 7 36 -2
2 -9 -10 -15 -28z"/>
<path d="M656 515 c-9 -26 -7 -32 5 -12 6 10 9 21 6 23 -2 3 -7 -2 -11 -11z"/>
<path d="M2606 475 c-9 -26 -7 -32 5 -12 6 10 9 21 6 23 -2 3 -7 -2 -11 -11z"/>
<path d="M1811 449 c-6 -18 -9 -34 -7 -36 2 -2 9 10 15 28 6 18 9 34 7 36 -2
2 -9 -10 -15 -28z"/>
<path d="M3386 455 c-9 -26 -7 -32 5 -12 6 10 9 21 6 23 -2 3 -7 -2 -11 -11z"/>
<path d="M2981 419 c-6 -18 -9 -34 -7 -36 2 -2 9 10 15 28 6 18 9 34 7 36 -2
2 -9 -10 -15 -28z"/>
<path d="M1016 425 c-9 -26 -7 -32 5 -12 6 10 9 21 6 23 -2 3 -7 -2 -11 -11z"/>
<path d="M2186 395 c-9 -26 -7 -32 5 -12 6 10 9 21 6 23 -2 3 -7 -2 -11 -11z"/>
<path d="M214 375 c-6 -25 -8 -25 -113 -27 l-106 -2 103 -3 c76 -3 103 -7 99
-16 -13 -37 -14 -56 0 -24 l16 37 188 0 c140 0 189 -3 192 -12 4 -10 6 -10 6
0 1 18 1167 17 1174 -1 4 -9 6 -9 6 1 1 9 86 12 391 12 l390 0 -11 -26 c-5
-15 -8 -29 -5 -31 2 -2 8 10 14 26 l11 31 190 0 c142 0 191 -3 194 -12 4 -10
6 -10 6 0 1 9 69 12 308 12 168 0 304 2 301 5 -3 3 -138 5 -301 5 -227 0 -297
3 -300 13 -4 9 -6 9 -6 -1 -1 -18 -1167 -17 -1174 1 -4 9 -6 9 -6 0 -1 -10
-46 -13 -192 -13 l-191 0 5 28 6 27 -12 -27 -11 -28 -584 0 -584 0 6 25 c4 14
4 25 1 25 -2 0 -7 -11 -11 -25z"/>
<path d="M2926 265 c-9 -26 -7 -32 5 -12 6 10 9 21 6 23 -2 3 -7 -2 -11 -11z"/>
<path d="M2131 239 c-6 -18 -9 -34 -7 -36 2 -2 9 10 15 28 6 18 9 34 7 36 -2
2 -9 -10 -15 -28z"/>
<path d="M3301 209 c-6 -18 -9 -34 -7 -36 2 -2 9 10 15 28 6 18 9 34 7 36 -2
2 -9 -10 -15 -28z"/>
<path d="M2516 215 c-9 -26 -7 -32 5 -12 6 10 9 21 6 23 -2 3 -7 -2 -11 -11z"/>
<path d="M1721 189 c-6 -18 -9 -34 -7 -36 2 -2 9 10 15 28 6 18 9 34 7 36 -2
2 -9 -10 -15 -28z"/>
<path d="M926 165 c-9 -26 -7 -32 5 -12 6 10 9 21 6 23 -2 3 -7 -2 -11 -11z"/>
<path d="M2101 149 c-6 -18 -9 -34 -7 -36 2 -2 9 10 15 28 6 18 9 34 7 36 -2
2 -9 -10 -15 -28z"/>
<path d="M131 139 c-6 -18 -9 -34 -7 -36 2 -2 9 10 15 28 6 18 9 34 7 36 -2 2
-9 -10 -15 -28z"/>
<path d="M1301 109 c-6 -18 -9 -34 -7 -36 2 -2 9 10 15 28 6 18 9 34 7 36 -2
2 -9 -10 -15 -28z"/>
<path d="M506 85 c-9 -26 -7 -32 5 -12 6 10 9 21 6 23 -2 3 -7 -2 -11 -11z"/>
<path d="M2461 59 c-6 -18 -9 -34 -7 -36 2 -2 9 10 15 28 6 18 9 34 7 36 -2 2
-9 -10 -15 -28z"/>
<path d="M1666 35 c-9 -26 -7 -32 5 -12 6 10 9 21 6 23 -2 3 -7 -2 -11 -11z"/>
</g>
</svg>
